<?xml version="1.0" encoding="UTF-8" standalone="no"?>
<!-- Created with Inkscape (http://www.inkscape.org/) -->

<svg
   width="135.46666mm"
   height="130.68251mm"
   viewBox="0 0 135.46666 130.68251"
   version="1.1"
   id="svg5"
   inkscape:version="1.2.2 (b0a8486541, 2022-12-01)"
   sodipodi:docname="logoSimulador.svg"
   xmlns:inkscape="http://www.inkscape.org/namespaces/inkscape"
   xmlns:sodipodi="http://sodipodi.sourceforge.net/DTD/sodipodi-0.dtd"
   xmlns:xlink="http://www.w3.org/1999/xlink"
   xmlns="http://www.w3.org/2000/svg"
   xmlns:svg="http://www.w3.org/2000/svg">
  <sodipodi:namedview
     id="namedview7"
     pagecolor="#ffffff"
     bordercolor="#000000"
     borderopacity="0.25"
     inkscape:showpageshadow="2"
     inkscape:pageopacity="0.0"
     inkscape:pagecheckerboard="0"
     inkscape:deskcolor="#d1d1d1"
     inkscape:document-units="mm"
     showgrid="false"
     inkscape:zoom="0.70710678"
     inkscape:cx="-70.003571"
     inkscape:cy="203.64675"
     inkscape:window-width="1920"
     inkscape:window-height="1024"
     inkscape:window-x="0"
     inkscape:window-y="25"
     inkscape:window-maximized="1"
     inkscape:current-layer="layer1" />
  <defs
     id="defs2">
    <linearGradient
       inkscape:collect="always"
       id="linearGradient3129">
      <stop
         style="stop-color:#196fd1;stop-opacity:1;"
         offset="0"
         id="stop3125" />
      <stop
         style="stop-color:#13549e;stop-opacity:1;"
         offset="1"
         id="stop3127" />
    </linearGradient>
    <linearGradient
       inkscape:collect="always"
       xlink:href="#linearGradient3129"
       id="linearGradient3131"
       x1="27.275537"
       y1="99.992676"
       x2="153.8739"
       y2="223.48138"
       gradientUnits="userSpaceOnUse" />
  </defs>
  <g
     inkscape:label="Camada 1"
     inkscape:groupmode="layer"
     id="layer1"
     transform="translate(-19.195763,-92.151237)">
    <rect
       style="fill:url(#linearGradient3131);fill-opacity:1;stroke:none;stroke-width:4.80986;stroke-dasharray:none"
       id="rect1011"
       width="135.46666"
       height="130.68251"
       x="19.195763"
       y="92.151237"
       ry="26.3437" />
    <path
       id="rect2098"
       style="fill:#ffffff;stroke:none;stroke-width:4.06694;stroke-linecap:butt;stroke-linejoin:miter;stroke-dasharray:none"
       d="m 116.31331,109.43208 c -4.55202,0.1387 -8.94993,1.99181 -12.25248,5.28857 -5.12874,5.12867 -6.448652,12.65661 -4.094322,19.10684 l -5.672522,5.67252 v 21.23488 L 110.45527,144.5736 c 6.44208,2.46911 13.99661,1.01598 19.23604,-4.22351 4.40229,-4.40321 6.23587,-10.75788 4.85603,-16.82946 h -5.1e-4 l -11.20345,11.20345 -0.002,-0.002 c -0.055,0.0579 -0.11059,0.11555 -0.16692,0.17208 -3.99184,3.99243 -8.24565,2.47726 -12.01683,-1.29398 -3.77049,-3.77132 -5.63079,-8.36998 -1.63866,-12.36152 0.0576,-0.0552 0.11627,-0.10986 0.17518,-0.16381 l -0.006,-0.006 11.19415,-11.19363 c -1.51677,-0.34482 -3.05138,-0.4891 -4.56872,-0.44287 z m -24.922506,32.97111 -3.010152,3.01016 v 21.23488 l 3.010152,-3.01016 z m -5.913334,5.91334 -3.010152,3.01015 v 21.23488 l 3.010152,-3.01015 z m -5.913334,5.91333 -16.300297,16.3003 c -6.450226,-2.35434 -13.978173,-1.03442 -19.106844,4.09432 -4.395717,4.40333 -6.22497,10.75414 -4.845699,16.8212 l 11.193632,-11.19363 0.0057,0.006 c 0.05401,-0.0589 0.108598,-0.11706 0.163814,-0.17467 3.991541,-3.99212 8.590194,-2.13234 12.36152,1.63815 3.771231,3.77117 5.285897,8.02497 1.293461,12.01684 -0.0566,0.0563 -0.113608,0.1121 -0.171566,0.16691 l 0.0021,0.002 -11.202934,11.20345 c 6.071573,1.37984 12.426264,-0.45377 16.829464,-4.85604 5.239498,-5.23945 6.693159,-12.79398 4.224032,-19.23603 l 5.553666,-5.55367 z" />
  </g>
</svg>
