<?xml version="1.0" encoding="UTF-8" standalone="no"?>
<!-- Created with Inkscape (http://www.inkscape.org/) -->

<svg
   width="135.46666mm"
   height="130.68251mm"
   viewBox="0 0 135.46666 130.68251"
   version="1.1"
   id="svg5"
   inkscape:version="1.2.2 (b0a8486541, 2022-12-01)"
   sodipodi:docname="logo.svg"
   inkscape:export-filename="logo.png"
   inkscape:export-xdpi="99.514465"
   inkscape:export-ydpi="99.514465"
   xmlns:inkscape="http://www.inkscape.org/namespaces/inkscape"
   xmlns:sodipodi="http://sodipodi.sourceforge.net/DTD/sodipodi-0.dtd"
   xmlns="http://www.w3.org/2000/svg"
   xmlns:svg="http://www.w3.org/2000/svg">
  <sodipodi:namedview
     id="namedview7"
     pagecolor="#ffffff"
     bordercolor="#000000"
     borderopacity="0.25"
     inkscape:showpageshadow="2"
     inkscape:pageopacity="0.0"
     inkscape:pagecheckerboard="0"
     inkscape:deskcolor="#d1d1d1"
     inkscape:document-units="mm"
     showgrid="false"
     inkscape:zoom="0.7071068"
     inkscape:cx="-86.267025"
     inkscape:cy="432.04223"
     inkscape:window-width="1481"
     inkscape:window-height="1055"
     inkscape:window-x="0"
     inkscape:window-y="25"
     inkscape:window-maximized="0"
     inkscape:current-layer="layer1" />
  <defs
     id="defs2">
    <inkscape:perspective
       sodipodi:type="inkscape:persp3d"
       inkscape:vp_x="-1.9776999 : 87.301666 : 1"
       inkscape:vp_y="0 : 1000 : 0"
       inkscape:vp_z="134.97532 : 89.477589 : 1"
       inkscape:persp3d-origin="67.73333 : 43.560837 : 1"
       id="perspective484" />
  </defs>
  <g
     inkscape:label="Camada 1"
     inkscape:groupmode="layer"
     id="layer1"
     transform="translate(-19.195763,-92.151237)">
    <path
       id="rect2098"
       style="fill:#ffffff;stroke:none;stroke-width:4.06694;stroke-linecap:butt;stroke-linejoin:miter;stroke-dasharray:none"
       d="m 115.81414,108.3856 c -4.55202,0.1387 -8.94993,1.99181 -12.25248,5.28857 -5.128741,5.12867 -6.448651,12.65661 -4.094321,19.10684 l -5.67252,5.67252 v 21.23488 L 109.9561,143.52712 c 6.44208,2.46911 13.99661,1.01598 19.23604,-4.22351 4.40229,-4.40321 6.23587,-10.75788 4.85603,-16.82946 h -5.1e-4 l -11.20345,11.20345 -0.002,-0.002 c -0.055,0.0579 -0.11059,0.11555 -0.16692,0.17208 -3.99184,3.99243 -8.24565,2.47726 -12.01683,-1.29398 -3.77049,-3.77132 -5.63079,-8.36998 -1.63866,-12.36152 0.0576,-0.0552 0.11627,-0.10986 0.17518,-0.16381 l -0.006,-0.006 11.19415,-11.19363 c -1.51677,-0.34482 -3.05138,-0.4891 -4.56872,-0.44287 z m -24.922501,32.97111 -3.01015,3.01016 v 21.23488 l 3.01015,-3.01016 z m -5.91334,5.91334 -3.01015,3.01015 v 21.23488 l 3.01015,-3.01015 z m -5.91333,5.91333 -16.3003,16.3003 c -6.450222,-2.35434 -13.978169,-1.03442 -19.10684,4.09432 -4.395717,4.40333 -6.22497,10.75414 -4.845699,16.8212 l 11.193632,-11.19363 0.0057,0.006 c 0.05401,-0.0589 0.108598,-0.11706 0.163814,-0.17467 3.991541,-3.99212 8.590193,-2.13234 12.361523,1.63815 3.77123,3.77117 5.28589,8.02497 1.29346,12.01684 -0.0566,0.0563 -0.11361,0.1121 -0.17157,0.16691 l 0.002,0.002 -11.202932,11.20345 c 6.071572,1.37984 12.426262,-0.45377 16.829462,-4.85604 5.2395,-5.23945 6.69316,-12.79398 4.22403,-19.23603 l 5.55367,-5.55367 z" />
    <g
       id="g1397"
       transform="translate(3.6930097,-7.7332968)"
       style="fill:#ffffff">
      <path
         id="path566"
         style="fill:#ffffff;fill-opacity:1;stroke:none;stroke-width:1.87974;stroke-dasharray:none"
         d="m 61.404465,121.34989 -17.780471,4.76434 -4.763976,17.7801 13.01576,13.01613 17.780471,-4.76398 4.764341,-17.78046 z m -4.764343,7.31155 a 10.468944,10.468944 0 0 1 10.468929,10.46892 10.468944,10.468944 0 0 1 -10.468929,10.46893 10.468944,10.468944 0 0 1 -10.468928,-10.46893 10.468944,10.468944 0 0 1 10.468928,-10.46892 z" />
      <text
         xml:space="preserve"
         style="font-weight:800;font-size:50.4138px;font-family:'Exo 2';-inkscape-font-specification:'Exo 2 Ultra-Bold';fill:#ffffff;fill-opacity:1;stroke:none;stroke-width:42.0115;stroke-dasharray:none"
         x="99.683929"
         y="206.51707"
         id="text1342"><tspan
           sodipodi:role="line"
           id="tspan1340"
           style="font-style:normal;font-variant:normal;font-weight:normal;font-stretch:normal;font-family:'Open Sans';-inkscape-font-specification:'Open Sans';fill:#ffffff;stroke-width:42.0115"
           x="99.683929"
           y="206.51707">λ</tspan></text>
    </g>
  </g>
</svg>
